<svg width="55" height="45" viewBox="0 0 55 45" fill="none" xmlns="http://www.w3.org/2000/svg">
<path d="M21.3889 2.61905C21.3889 1.92443 21.1129 1.25827 20.6218 0.767101C20.1306 0.275934 19.4644 0 18.7698 0C18.0752 0 17.409 0.275934 16.9179 0.767101C16.4267 1.25827 16.1508 1.92443 16.1508 2.61905V4.36508H21.3889V2.61905Z" fill="#5669FF"/>
<path d="M11.7857 31.8651C10.4907 31.8651 9.22475 32.2491 8.148 32.9685C7.07125 33.688 6.23202 34.7106 5.73645 35.907C5.24087 37.1034 5.11121 38.4199 5.36385 39.69C5.61649 40.9602 6.24009 42.1268 7.15579 43.0425C8.07149 43.9582 9.23817 44.5818 10.5083 44.8345C11.7784 45.0871 13.0949 44.9575 14.2913 44.4619C15.4877 43.9663 16.5103 43.1271 17.2298 42.0503C17.9493 40.9736 18.3333 39.7077 18.3333 38.4127C18.3313 36.6767 17.6408 35.0125 16.4134 33.785C15.1859 32.5575 13.5216 31.867 11.7857 31.8651ZM11.7857 41.0317C11.2677 41.0317 10.7613 40.8781 10.3306 40.5903C9.89989 40.3025 9.5642 39.8935 9.36597 39.4149C9.16774 38.9364 9.11588 38.4098 9.21693 37.9017C9.31799 37.3937 9.56743 36.927 9.93371 36.5607C10.3 36.1944 10.7667 35.945 11.2747 35.8439C11.7828 35.7429 12.3094 35.7948 12.7879 35.993C13.2665 36.1912 13.6755 36.5269 13.9633 36.9576C14.2511 37.3883 14.4047 37.8947 14.4047 38.4127C14.4047 39.1073 14.1288 39.7734 13.6376 40.2646C13.1464 40.7558 12.4803 41.0317 11.7857 41.0317Z" fill="#5669FF"/>
<path d="M44.9603 31.8651C43.6653 31.8651 42.3994 32.2491 41.3227 32.9685C40.2459 33.688 39.4067 34.7106 38.9111 35.907C38.4156 37.1034 38.2859 38.4199 38.5385 39.69C38.7912 40.9602 39.4148 42.1268 40.3305 43.0425C41.2462 43.9582 42.4128 44.5818 43.683 44.8345C44.9531 45.0871 46.2696 44.9575 47.466 44.4619C48.6624 43.9663 49.685 43.1271 50.4045 42.0503C51.1239 40.9736 51.508 39.7077 51.508 38.4127C51.506 36.6767 50.8155 35.0125 49.588 33.785C48.3605 32.5575 46.6963 31.867 44.9603 31.8651ZM44.9603 41.0317C44.4423 41.0317 43.936 40.8781 43.5053 40.5903C43.0746 40.3025 42.7389 39.8935 42.5407 39.4149C42.3424 38.9364 42.2906 38.4098 42.3916 37.9017C42.4927 37.3937 42.7421 36.927 43.1084 36.5607C43.4747 36.1944 43.9413 35.945 44.4494 35.8439C44.9574 35.7429 45.484 35.7948 45.9626 35.993C46.4412 36.1912 46.8502 36.5269 47.138 36.9576C47.4258 37.3883 47.5794 37.8947 47.5794 38.4127C47.5794 39.1073 47.3034 39.7734 46.8123 40.2646C46.3211 40.7558 45.655 41.0317 44.9603 41.0317Z" fill="#5669FF"/>
<path d="M53.5521 26.4031L47.6121 23.4328C46.5978 21.8652 42.0611 14.8706 40.7625 13.1726C40.6403 13.0128 40.4828 12.8832 40.3024 12.7941C40.122 12.7049 39.9235 12.6585 39.7222 12.6585H33.5474L31.1412 7.84603C30.817 7.19186 30.3159 6.64165 29.6948 6.25781C29.0737 5.87397 28.3575 5.67186 27.6273 5.6744H2.61905C1.92468 5.67521 1.25899 5.9514 0.767994 6.4424C0.277003 6.93339 0.00080868 7.59908 0 8.29345V35.7934C0.00115537 36.835 0.415428 37.8336 1.15193 38.5701C1.88843 39.3066 2.887 39.7209 3.92857 39.722H4.03977C3.8481 38.5949 3.90472 37.4395 4.20567 36.3366C4.50661 35.2336 5.04464 34.2096 5.7822 33.336C6.51976 32.4624 7.43908 31.7604 8.47599 31.2788C9.5129 30.7972 10.6424 30.5476 11.7857 30.5476C12.929 30.5476 14.0585 30.7972 15.0954 31.2788C16.1323 31.7604 17.0517 32.4624 17.7892 33.336C18.5268 34.2096 19.0648 35.2336 19.3658 36.3366C19.6667 37.4395 19.7233 38.5949 19.5317 39.722H37.2144C37.0251 38.6108 37.0771 37.4719 37.3669 36.3825C37.6567 35.2932 38.1774 34.279 38.8939 33.4087C39.6103 32.5385 40.5056 31.8326 41.519 31.3389C42.5323 30.8452 43.6401 30.5754 44.7669 30.5477C45.8938 30.52 47.0135 30.7352 48.0499 31.1784C49.0862 31.6217 50.0151 32.2828 50.7734 33.1169C51.5317 33.9509 52.1017 34.9383 52.4446 36.0121C52.7875 37.0859 52.8954 38.2209 52.7609 39.3401C53.4307 39.0204 53.9964 38.5177 54.3926 37.8901C54.7888 37.2625 54.9994 36.5356 55 35.7934V28.7456C55.0016 28.2588 54.8669 27.7814 54.6109 27.3673C54.355 26.9533 53.9882 26.6192 53.5521 26.4031ZM25.754 20.5157C25.754 20.863 25.616 21.1961 25.3704 21.4416C25.1248 21.6872 24.7917 21.8252 24.4444 21.8252H21.3889V24.8807C21.3889 25.2281 21.2509 25.5611 21.0053 25.8067C20.7597 26.0523 20.4267 26.1903 20.0794 26.1903H17.4603C17.113 26.1903 16.7799 26.0523 16.5343 25.8067C16.2888 25.5611 16.1508 25.2281 16.1508 24.8807V21.8252H13.0952C12.7479 21.8252 12.4148 21.6872 12.1693 21.4416C11.9237 21.1961 11.7857 20.863 11.7857 20.5157V17.8966C11.7857 17.5493 11.9237 17.2162 12.1693 16.9706C12.4148 16.7251 12.7479 16.5871 13.0952 16.5871H16.1508V13.5315C16.1508 13.1842 16.2888 12.8512 16.5343 12.6056C16.7799 12.36 17.113 12.222 17.4603 12.222H20.0794C20.4267 12.222 20.7597 12.36 21.0053 12.6056C21.2509 12.8512 21.3889 13.1842 21.3889 13.5315V16.5871H24.4444C24.7917 16.5871 25.1248 16.7251 25.3704 16.9706C25.616 17.2162 25.754 17.5493 25.754 17.8966V20.5157ZM37.9762 29.2458H36.3393C35.992 29.2458 35.6589 29.1079 35.4133 28.8623C35.1677 28.6167 35.0298 28.2836 35.0298 27.9363C35.0298 27.589 35.1677 27.2559 35.4133 27.0103C35.6589 26.7647 35.992 26.6268 36.3393 26.6268H37.9762C38.3235 26.6268 38.6566 26.7647 38.9022 27.0103C39.1477 27.2559 39.2857 27.589 39.2857 27.9363C39.2857 28.2836 39.1477 28.6167 38.9022 28.8623C38.6566 29.1079 38.3235 29.2458 37.9762 29.2458ZM44.8217 23.6803H36.2301C35.8828 23.6803 35.5498 23.5424 35.3042 23.2968C35.0586 23.0512 34.9206 22.7181 34.9206 22.3708V15.7141C34.9206 15.3668 35.0586 15.0337 35.3042 14.7881C35.5498 14.5425 35.8828 14.4046 36.2301 14.4046H39.2093C39.4227 14.4046 39.6328 14.4567 39.8214 14.5564C40.01 14.6561 40.1714 14.8004 40.2915 14.9767C41.8739 17.2955 44.2062 20.8737 45.3716 22.6695C45.4357 22.7684 45.4719 22.8827 45.4764 23.0005C45.4809 23.1182 45.4536 23.235 45.3973 23.3385C45.341 23.442 45.2578 23.5284 45.1565 23.5885C45.0552 23.6487 44.9395 23.6804 44.8217 23.6803Z" fill="#5669FF"/>
</svg>
