<svg width="37" height="37" viewBox="0 0 37 37" fill="none" xmlns="http://www.w3.org/2000/svg">
<path d="M31.6589 19.7517H28.7975C29.0891 20.5502 29.2485 21.412 29.2485 22.3102V33.1248C29.2485 33.4993 29.1833 33.8587 29.0647 34.193H33.7953C35.5624 34.193 37 32.7554 37 30.9883V25.0928C37.0001 22.1478 34.604 19.7517 31.6589 19.7517Z" fill="#5669FF"/>
<path d="M7.75159 22.3102C7.75159 21.4119 7.91093 20.5502 8.2026 19.7517H5.34116C2.39604 19.7517 0 22.1478 0 25.0929V30.9884C0 32.7554 1.43758 34.1931 3.2047 34.1931H7.93536C7.81677 33.8586 7.75159 33.4993 7.75159 33.1248V22.3102Z" fill="#5669FF"/>
<path d="M21.7709 16.969H15.2292C12.2841 16.969 9.88806 19.365 9.88806 22.3102V33.1247C9.88806 33.7146 10.3663 34.193 10.9563 34.193H26.0438C26.6338 34.193 27.112 33.7147 27.112 33.1247V22.3102C27.112 19.365 24.716 16.969 21.7709 16.969Z" fill="#5669FF"/>
<path d="M18.5 2.80664C14.9581 2.80664 12.0766 5.68817 12.0766 9.23013C12.0766 11.6326 13.4026 13.7308 15.3609 14.8325C16.2897 15.3549 17.3605 15.6535 18.5 15.6535C19.6395 15.6535 20.7103 15.3549 21.6392 14.8325C23.5975 13.7308 24.9234 11.6325 24.9234 9.23013C24.9234 5.68824 22.0419 2.80664 18.5 2.80664Z" fill="#5669FF"/>
<path d="M7.22068 8.79395C4.57177 8.79395 2.41681 10.9489 2.41681 13.5978C2.41681 16.2467 4.57177 18.4017 7.22068 18.4017C7.8926 18.4017 8.53244 18.2625 9.11368 18.0123C10.1186 17.5797 10.9472 16.8138 11.4599 15.8545C11.8198 15.1812 12.0245 14.413 12.0245 13.5978C12.0245 10.949 9.86958 8.79395 7.22068 8.79395Z" fill="#5669FF"/>
<path d="M29.7795 8.79395C27.1306 8.79395 24.9756 10.9489 24.9756 13.5978C24.9756 14.4131 25.1803 15.1812 25.5402 15.8545C26.0529 16.8139 26.8815 17.5797 27.8865 18.0123C28.4677 18.2625 29.1075 18.4017 29.7795 18.4017C32.4284 18.4017 34.5833 16.2467 34.5833 13.5978C34.5833 10.9489 32.4284 8.79395 29.7795 8.79395Z" fill="#5669FF"/>
</svg>
