<svg width="43" height="51" viewBox="0 0 43 51" fill="none" xmlns="http://www.w3.org/2000/svg">
<path d="M6.56222 26.3463C6.65384 27.3623 7.22566 28.3182 8.1826 28.8541C8.977 29.2991 9.79573 29.6262 10.6321 29.8478C10.1608 31.4381 9.295 33.7397 7.75382 36.2047C6.28994 38.5474 6.27251 41.3744 7.70775 43.9619C9.82213 47.7752 14.4909 50.3376 19.3272 50.3376C22.6487 50.3376 25.6017 48.808 27.6413 46.0302C30.5567 42.0587 31.2027 36.1977 29.3683 30.3551C27.6681 24.939 29.9421 22.0496 31.4467 20.8076C32.6733 21.9897 34.337 22.7187 36.1758 22.7187C39.9435 22.7187 43 19.6631 43 15.8935C43 12.1238 39.9435 9.06909 36.1758 9.06909C32.4062 9.06909 29.3514 12.1247 29.3514 15.8935C29.3514 16.4242 29.4175 16.9379 29.5319 17.4338C26.6906 19.5121 23.4107 24.1902 25.706 31.5042C27.1535 36.1162 26.7094 40.8112 24.5453 43.7581C23.6279 45.0089 21.9766 46.4994 19.3261 46.4994C15.897 46.4994 12.4992 44.69 11.0643 42.1008C10.5349 41.1458 10.0967 39.6991 11.0094 38.2384C13.0479 34.9753 14.0681 31.9304 14.552 30.0693C15.6849 29.8987 16.7911 29.5332 17.8552 28.965C18.8037 28.4584 19.3857 27.5417 19.5139 26.5509C24.0227 22.4749 26.1045 15.1306 26.2242 14.7008C26.4673 13.8191 26.0518 12.9139 25.2773 12.5012C25.9 6.98766 23.8593 4.20881 22.628 3.0769C22.7219 2.54719 22.51 1.98054 22.0446 1.67686L19.782 0.198142C19.191 -0.187843 18.4481 0.00696124 18.1242 0.635892L17.0461 2.71939C16.7214 3.34849 17.0076 4.01935 17.6859 4.2195L20.2439 4.97353C20.8925 5.16471 21.6695 4.85482 22.0367 4.28645C23.0561 5.36038 24.5241 7.75135 24.0184 12.3124C23.3232 12.4448 22.7274 12.9512 22.5255 13.6793C21.9109 15.8853 20.1357 20.4419 17.5001 23.1742C16.6612 22.85 15.6966 22.8661 14.8412 23.3216C14.284 23.6192 13.7391 23.7692 13.1799 23.7809H13.0646C12.4754 23.7683 11.8999 23.6021 11.3107 23.2726C10.4763 22.8045 9.52587 22.7632 8.68781 23.059C6.11118 20.3155 4.37382 15.8553 3.76939 13.6797C3.56699 12.9534 2.96877 12.4458 2.276 12.3136C1.7694 7.75256 3.23691 5.36159 4.25769 4.28766C4.62521 4.85585 5.40133 5.16592 6.04993 4.97457L8.60793 4.22054C9.28517 4.02038 9.57332 3.34849 9.24773 2.72042L8.17052 0.636755C7.84579 0.00765146 7.1028 -0.186981 6.5127 0.199005L4.24786 1.67876C3.78284 1.98244 3.57147 2.54891 3.66482 3.0788C2.43543 4.21088 0.393002 6.98852 1.01607 12.5029C0.240989 12.9158 -0.173122 13.8208 0.0689605 14.7036C0.186637 15.1244 2.20577 22.2345 6.56222 26.3463ZM36.1758 13.2276C37.6462 13.2276 38.8408 14.4204 38.8408 15.8938C38.8408 17.3661 37.6462 18.5598 36.1758 18.5598C34.7033 18.5598 33.5096 17.3661 33.5096 15.8938C33.5096 14.4203 34.7024 13.2276 36.1758 13.2276Z" fill="#5669FF"/>
</svg>
