<svg width="33" height="51" viewBox="0 0 33 51" fill="none" xmlns="http://www.w3.org/2000/svg">
<path d="M32.8667 35.5983C32.8395 39.6919 31.0961 43.6091 28.0172 46.4948C24.9383 49.3804 20.774 51 16.4333 51C12.0927 51 7.92834 49.3804 4.84944 46.4948C1.77054 43.6091 0.0271932 39.6919 1.89854e-08 35.5983C-0.000644969 22.5217 16.433 0 16.433 0C16.433 0 32.8667 22.1585 32.8667 35.5983Z" fill="#5669FF" fill-opacity="0.8"/>
<path d="M32.8667 34.9084C32.8657 39.0066 31.2626 42.9502 28.3844 45.9348C25.5061 48.9194 21.5694 50.7203 17.3772 50.9701C13.185 51.2199 9.05301 49.8998 5.82395 47.2791C2.59489 44.6584 0.511975 40.9344 0 36.8667C2.03454 39.6369 4.9177 41.7053 8.23415 42.7742C11.5506 43.843 15.1292 43.8571 18.4543 42.8143C21.7795 41.7715 24.6796 39.7257 26.7369 36.9717C28.7942 34.2176 29.9025 30.8974 29.9022 27.4893C29.7987 24.302 29.2044 21.1481 28.1392 18.1334C30.8047 23.9131 32.8667 29.9745 32.8667 34.9084Z" fill="#5669FF"/>
<path d="M16.4333 21.5333L16.4334 36.2666" stroke="white" stroke-width="3" stroke-linejoin="round"/>
<path d="M9.06665 28.9L23.8 28.9" stroke="white" stroke-width="3" stroke-linejoin="round"/>
</svg>
