<svg width="20" height="19" viewBox="0 0 20 19" fill="none" xmlns="http://www.w3.org/2000/svg">
<path fill-rule="evenodd" clip-rule="evenodd" d="M10.1883 0C7.60825 0 7.28445 0.0112812 6.27112 0.0573958C5.25977 0.103708 4.56944 0.263823 3.96539 0.49875C3.34057 0.741395 2.81055 1.06598 2.28251 1.59422C1.75407 2.12226 1.42949 2.65228 1.18605 3.2769C0.950531 3.88114 0.790219 4.57167 0.744698 5.58263C0.699375 6.59597 0.6875 6.91995 0.6875 9.49999C0.6875 12.08 0.698979 12.4028 0.744896 13.4162C0.791406 14.4275 0.951521 15.1179 1.18625 15.7219C1.42909 16.3467 1.75368 16.8767 2.28192 17.4048C2.80976 17.9332 3.33978 18.2586 3.96421 18.5012C4.56864 18.7362 5.25917 18.8963 6.27033 18.9426C7.28366 18.9887 7.60726 19 10.1871 19C12.7673 19 13.0901 18.9887 14.1035 18.9426C15.1148 18.8963 15.806 18.7362 16.4104 18.5012C17.035 18.2586 17.5642 17.9332 18.0921 17.4048C18.6205 16.8767 18.9451 16.3467 19.1885 15.7221C19.4221 15.1179 19.5824 14.4273 19.6299 13.4164C19.6754 12.403 19.6873 12.08 19.6873 9.49999C19.6873 6.91995 19.6754 6.59616 19.6299 5.58283C19.5824 4.57148 19.4221 3.88114 19.1885 3.2771C18.9451 2.65228 18.6205 2.12226 18.0921 1.59422C17.5636 1.06578 17.0352 0.741198 16.4098 0.49875C15.8042 0.263823 15.1134 0.103708 14.1021 0.0573958C13.0888 0.0112812 12.7662 0 10.1853 0H10.1883ZM9.33623 1.71201C9.58917 1.71162 9.8714 1.71201 10.1885 1.71201C12.725 1.71201 13.0256 1.72112 14.0273 1.76664C14.9535 1.80899 15.4562 1.96376 15.7911 2.0938C16.2344 2.26598 16.5505 2.47182 16.8828 2.80432C17.2153 3.13682 17.4211 3.45348 17.5937 3.89682C17.7237 4.23129 17.8787 4.734 17.9209 5.66025C17.9664 6.66171 17.9763 6.96254 17.9763 9.49785C17.9763 12.0332 17.9664 12.334 17.9209 13.3355C17.8785 14.2617 17.7237 14.7644 17.5937 15.0989C17.4215 15.5422 17.2153 15.8579 16.8828 16.1902C16.5503 16.5227 16.2346 16.7285 15.7911 16.9007C15.4566 17.0313 14.9535 17.1857 14.0273 17.2281C13.0258 17.2736 12.725 17.2835 10.1885 17.2835C7.65176 17.2835 7.35113 17.2736 6.34967 17.2281C5.42342 17.1853 4.92071 17.0306 4.58564 16.9005C4.14231 16.7283 3.82564 16.5225 3.49314 16.19C3.16064 15.8575 2.95481 15.5416 2.78223 15.0981C2.65219 14.7636 2.49723 14.2609 2.45507 13.3347C2.40955 12.3332 2.40044 12.0324 2.40044 9.49548C2.40044 6.95858 2.40955 6.65933 2.45507 5.65788C2.49742 4.73163 2.65219 4.22892 2.78223 3.89404C2.95441 3.45071 3.16064 3.13404 3.49314 2.80154C3.82564 2.46905 4.14231 2.26321 4.58564 2.09063C4.92052 1.96 5.42342 1.80563 6.34967 1.76308C7.22605 1.72349 7.56567 1.71162 9.33623 1.70964V1.71201ZM15.2596 3.2895C14.6302 3.2895 14.1196 3.79953 14.1196 4.42911C14.1196 5.05848 14.6302 5.56911 15.2596 5.56911C15.889 5.56911 16.3996 5.05848 16.3996 4.42911C16.3996 3.79973 15.889 3.28911 15.2596 3.28911V3.2895ZM10.1884 4.62127C7.49416 4.62127 5.30976 6.80568 5.30976 9.49992C5.30976 12.1942 7.49416 14.3776 10.1884 14.3776C12.8826 14.3776 15.0663 12.1942 15.0663 9.49992C15.0663 6.80568 12.8824 4.62127 10.1882 4.62127H10.1884ZM10.1882 6.33323C11.937 6.33323 13.3549 7.75091 13.3549 9.4999C13.3549 11.2487 11.937 12.6666 10.1882 12.6666C8.43925 12.6666 7.02157 11.2487 7.02157 9.4999C7.02157 7.75091 8.43925 6.33323 10.1882 6.33323Z" fill="#0F001A"/>
</svg>
