<svg width="29" height="29" viewBox="0 0 29 29" fill="none" xmlns="http://www.w3.org/2000/svg">
<path fill-rule="evenodd" clip-rule="evenodd" d="M8.64213 0.376754C10.1573 0.307004 10.6403 0.291504 14.4998 0.291504C18.3593 0.291504 18.8424 0.308296 20.3563 0.376754C21.8701 0.445212 22.9034 0.686754 23.8076 1.0368C24.7544 1.39459 25.6133 1.95388 26.3238 2.67721C27.0471 3.38634 27.6051 4.244 27.9616 5.19209C28.3129 6.09625 28.5532 7.12959 28.6229 8.64084C28.6927 10.1585 28.7082 10.6416 28.7082 14.4998C28.7082 18.3593 28.6914 18.8424 28.6229 20.3575C28.5545 21.8688 28.3129 22.9021 27.9616 23.8063C27.6051 24.7545 27.0462 25.6136 26.3238 26.3237C25.6133 27.0471 24.7544 27.6051 23.8076 27.9616C22.9034 28.3129 21.8701 28.5532 20.3588 28.6229C18.8424 28.6927 18.3593 28.7082 14.4998 28.7082C10.6403 28.7082 10.1573 28.6914 8.64213 28.6229C7.13088 28.5545 6.09755 28.3129 5.19338 27.9616C4.24519 27.605 3.38611 27.0461 2.67592 26.3237C1.95308 25.6142 1.3937 24.7555 1.0368 23.8076C0.686754 22.9034 0.446504 21.8701 0.376754 20.3588C0.307004 18.8411 0.291504 18.358 0.291504 14.4998C0.291504 10.6403 0.308296 10.1573 0.376754 8.64342C0.445212 7.12959 0.686754 6.09625 1.0368 5.19209C1.39423 4.24411 1.95403 3.38545 2.67721 2.67592C3.38639 1.95323 4.24461 1.39387 5.19209 1.0368C6.09625 0.686754 7.12959 0.446504 8.64084 0.376754H8.64213ZM20.2413 2.93425C18.743 2.8658 18.2935 2.85159 14.4998 2.85159C10.7062 2.85159 10.2567 2.8658 8.75838 2.93425C7.37242 2.99755 6.62067 3.22875 6.1195 3.4238C5.45688 3.68213 4.98284 3.98825 4.48555 4.48555C4.01415 4.94415 3.65136 5.50245 3.4238 6.1195C3.22875 6.62067 2.99755 7.37242 2.93425 8.75838C2.8658 10.2567 2.85159 10.7062 2.85159 14.4998C2.85159 18.2935 2.8658 18.743 2.93425 20.2413C2.99755 21.6273 3.22875 22.379 3.4238 22.8802C3.65113 23.4963 4.01409 24.0556 4.48555 24.5141C4.94409 24.9856 5.50338 25.3485 6.1195 25.5759C6.62067 25.7709 7.37242 26.0021 8.75838 26.0654C10.2567 26.1339 10.7049 26.1481 14.4998 26.1481C18.2948 26.1481 18.743 26.1339 20.2413 26.0654C21.6273 26.0021 22.379 25.7709 22.8802 25.5759C23.5428 25.3175 24.0168 25.0114 24.5141 24.5141C24.9856 24.0556 25.3485 23.4963 25.5759 22.8802C25.7709 22.379 26.0021 21.6273 26.0654 20.2413C26.1339 18.743 26.1481 18.2935 26.1481 14.4998C26.1481 10.7062 26.1339 10.2567 26.0654 8.75838C26.0021 7.37242 25.7709 6.62067 25.5759 6.1195C25.3175 5.45688 25.0114 4.98284 24.5141 4.48555C24.0555 4.01418 23.4972 3.6514 22.8802 3.4238C22.379 3.22875 21.6273 2.99755 20.2413 2.93425ZM12.685 18.8799C13.6986 19.3018 14.8271 19.3587 15.878 19.041C16.9288 18.7232 17.8367 18.0505 18.4467 17.1377C19.0566 16.2249 19.3307 15.1287 19.2222 14.0363C19.1137 12.9438 18.6293 11.9229 17.8517 11.148C17.356 10.6526 16.7567 10.2733 16.0968 10.0373C15.4369 9.80138 14.7329 9.71468 14.0355 9.78346C13.3381 9.85225 12.6646 10.0748 12.0635 10.4351C11.4624 10.7954 10.9487 11.2845 10.5594 11.8672C10.17 12.4499 9.91466 13.1117 9.81175 13.8049C9.70884 14.4981 9.76091 15.2055 9.9642 15.8761C10.1675 16.5468 10.517 17.164 10.9874 17.6834C11.4579 18.2028 12.0377 18.6114 12.685 18.8799ZM9.33575 9.33575C10.0139 8.6576 10.819 8.11965 11.7051 7.75264C12.5911 7.38562 13.5408 7.19672 14.4998 7.19672C15.4589 7.19672 16.4086 7.38562 17.2946 7.75264C18.1807 8.11965 18.9858 8.6576 19.6639 9.33575C20.3421 10.0139 20.88 10.819 21.247 11.7051C21.6141 12.5911 21.803 13.5408 21.803 14.4998C21.803 15.4589 21.6141 16.4086 21.247 17.2946C20.88 18.1807 20.3421 18.9858 19.6639 19.6639C18.2943 21.0335 16.4367 21.803 14.4998 21.803C12.5629 21.803 10.7054 21.0335 9.33575 19.6639C7.96615 18.2943 7.19672 16.4367 7.19672 14.4998C7.19672 12.5629 7.96615 10.7054 9.33575 9.33575ZM23.4227 8.28434C23.5907 8.12581 23.7253 7.93517 23.8183 7.72372C23.9114 7.51226 23.9611 7.28429 23.9644 7.05329C23.9678 6.82229 23.9248 6.59296 23.8379 6.37888C23.7511 6.16481 23.6221 5.97033 23.4588 5.80697C23.2954 5.64361 23.101 5.51469 22.8869 5.42784C22.6728 5.34099 22.4435 5.29797 22.2125 5.30134C21.9815 5.30471 21.7535 5.35439 21.542 5.44744C21.3306 5.5405 21.1399 5.67503 20.9814 5.84309C20.6731 6.16992 20.5043 6.60403 20.5109 7.05329C20.5174 7.50254 20.6988 7.93155 21.0165 8.24926C21.3342 8.56696 21.7632 8.74834 22.2125 8.75489C22.6617 8.76144 23.0958 8.59264 23.4227 8.28434Z" fill="white"/>
</svg>
