<svg width="47" height="47" viewBox="0 0 47 47" fill="none" xmlns="http://www.w3.org/2000/svg">
<g clip-path="url(#clip0_16_201)">
<path d="M15.4541 13.1194C11.9243 9.58993 6.18123 9.58993 2.65135 13.1198C0.941635 14.8295 0 17.1029 0 19.5208C0 21.9391 0.941635 24.2125 2.65135 25.9222C4.41629 27.6872 6.73452 28.5697 9.05275 28.5697C11.371 28.5697 13.6892 27.6872 15.4541 25.9222C18.9837 22.3927 18.9837 16.6493 15.4541 13.1194Z" fill="#5669FF" fill-opacity="0.7"/>
<path d="M15.4541 22.7018C13.6892 24.4668 11.371 25.3492 9.05275 25.3492C6.73452 25.3492 4.41629 24.4668 2.65135 22.7018C1.32747 21.378 0.464363 19.7159 0.142357 17.9108C0.0484085 18.4369 0 18.9751 0 19.5209C0 21.9391 0.941635 24.2125 2.65135 25.9223C4.41629 27.6872 6.73452 28.5697 9.05275 28.5697C11.371 28.5697 13.6892 27.6872 15.4541 25.9223C17.6293 23.7471 18.4619 20.7314 17.956 17.9108C17.6411 19.6668 16.8085 21.3475 15.4541 22.7018Z" fill="#5669FF" fill-opacity="0.7"/>
<path d="M32.5664 1.52462C30.5845 0.588009 27.9536 0.0476265 25.1581 0.00280383C22.3636 -0.0413017 19.7159 0.414455 17.7049 1.28724C15.5197 2.23605 14.3031 3.59005 14.279 5.09968C14.255 6.60931 15.4279 8.00132 17.5816 9.01934C19.5635 9.95595 22.1944 10.4963 24.9899 10.5408C25.115 10.5429 25.2398 10.544 25.3642 10.544C28.021 10.544 30.5221 10.0904 32.4426 9.25636C34.6282 8.30791 35.8449 6.95391 35.8689 5.44428C35.8929 3.93465 34.72 2.54264 32.5664 1.52462Z" fill="#5669FF"/>
<path d="M32.4426 6.12492C30.5221 6.95863 28.021 7.41223 25.3642 7.41223C25.2398 7.41223 25.115 7.41115 24.9899 7.409C22.1944 7.36454 19.5635 6.82416 17.5816 5.88754C16.2251 5.2464 15.258 4.45644 14.7337 3.58258C14.4426 4.062 14.2877 4.57119 14.279 5.09974C14.255 6.60937 15.4279 8.00138 17.5816 9.01939C19.5635 9.95601 22.1944 10.4964 24.9899 10.5412C25.115 10.543 25.2398 10.5441 25.3642 10.5441C28.021 10.5441 30.5221 10.0905 32.4426 9.25677C34.6282 8.30797 35.8449 6.95396 35.8689 5.44434C35.8779 4.88567 35.7226 4.34313 35.4146 3.82964C34.8738 4.72 33.8633 5.50816 32.4426 6.12492Z" fill="#8895FF"/>
<path d="M35.6871 35.6871L44.4419 26.9439C46.0899 25.298 46.9985 23.1085 47 20.7791C47.0014 18.4498 46.0956 16.2592 44.4497 14.6112C42.8038 12.9628 40.6143 12.0541 38.285 12.0527C38.2828 12.0527 38.2811 12.0527 38.2789 12.0527C35.9517 12.0527 33.7636 12.9585 32.1167 14.6029L23.3619 23.3462C23.3594 23.3487 23.3569 23.3519 23.3544 23.3544L35.6871 35.6871Z" fill="#5669FF"/>
<path d="M23.3544 23.3544C23.3569 23.3516 23.3591 23.3487 23.362 23.3462L14.6068 32.0895C12.9588 33.7357 12.0501 35.9249 12.0487 38.2542C12.0469 40.5839 12.9527 42.7745 14.5989 44.4225C16.2448 46.0709 18.4343 46.9792 20.7637 46.981H20.7694C23.0966 46.981 25.285 46.0752 26.932 44.4308L35.6868 35.6875C35.6868 35.6871 35.6868 35.6871 35.6871 35.6871L23.3544 23.3544Z" fill="#F9F1EF"/>
<path d="M47 20.7791C47.0014 18.4498 46.0957 16.2592 44.4498 14.6111C44.0779 14.2389 43.6781 13.9047 43.2557 13.6096C44.2687 15.0612 44.8137 16.7845 44.8127 18.5918C44.8109 20.9211 43.9026 23.1106 42.2542 24.7565L33.4998 33.4994L35.6871 35.6871L44.4419 26.9438C46.0899 25.2979 46.9986 23.1084 47 20.7791Z" fill="#5669FF" fill-opacity="0.8"/>
<path d="M35.6872 35.6871L33.4994 33.4994V33.4997L24.7443 42.2434C23.0974 43.8879 20.9093 44.7933 18.5821 44.7933C18.5799 44.7933 18.5782 44.7933 18.5764 44.7933C16.7731 44.7922 15.0537 44.2472 13.6053 43.2363C13.8983 43.6559 14.2296 44.0532 14.5986 44.4225C16.2449 46.0709 18.434 46.9795 20.7637 46.981H20.7694C23.0966 46.981 25.2851 46.0756 26.9317 44.4307L35.6868 35.6875C35.6868 35.6871 35.6868 35.6871 35.6872 35.6871Z" fill="#CCCCCC"/>
<path d="M15.4541 13.1194C15.2902 12.9555 15.1199 12.8017 14.9467 12.6533L2.18262 25.4173C2.33179 25.5905 2.48813 25.7591 2.65128 25.9222C2.81551 26.0864 2.98548 26.2399 3.15868 26.3887L15.9206 13.6268C15.7718 13.454 15.618 13.2836 15.4541 13.1194Z" fill="#5669FF"/>
<path d="M24.4301 0.00441188L24.3484 10.5213C24.561 10.5306 24.7747 10.5377 24.9899 10.5413C25.115 10.5431 25.2395 10.5442 25.3639 10.5442C25.4851 10.5442 25.6049 10.542 25.7253 10.5403L25.8071 0.0234167C25.5919 0.0140936 25.3757 0.00656337 25.1581 0.00297756C24.9142 -0.00060826 24.6715 0.000467485 24.4301 0.00441188Z" fill="#8895FF"/>
</g>
<defs>
<clipPath id="clip0_16_201">
<rect width="47" height="47" fill="white"/>
</clipPath>
</defs>
</svg>
