<svg width="36" height="36" viewBox="0 0 36 36" fill="none" xmlns="http://www.w3.org/2000/svg">
<g clip-path="url(#clip0_16_633)">
<path d="M35.0681 15.7629L30.8346 11.5294C29.0935 9.78834 30.1575 7.95058 32.0548 7.83897C35.1797 7.64552 36.9356 4.31226 34.3836 1.53702C31.6084 -1.00757 28.29 0.740905 28.0965 3.8584C27.9775 5.75568 26.1248 6.82709 24.3912 5.09349L20.247 0.949234C19.0044 -0.293299 16.9881 -0.293299 15.7456 0.949234L11.5492 5.14558C9.80821 6.88661 7.96301 5.80776 7.84396 3.91048C7.65051 0.785547 4.30237 -0.99269 1.52713 1.55934C-1.03234 4.34202 0.745892 7.69017 3.87083 7.88361C5.76811 8.00266 6.84696 9.8553 5.11336 11.5963L0.9319 15.7704C-0.310633 17.0129 -0.310633 19.0292 0.9319 20.2718L5.07616 24.416C6.8172 26.1496 5.78299 27.9576 3.88571 28.0766C0.760773 28.2701 -0.987703 31.5959 1.56433 34.3712C4.33957 36.9232 7.65051 35.1822 7.84396 32.0572C7.96301 30.1599 9.77844 29.1183 11.5195 30.8519L15.7009 35.0333C16.9658 36.2982 19.0342 36.2982 20.2991 35.0408L23.2305 32.1093L24.488 30.8519C26.1323 29.1332 25.0683 27.3252 23.1933 27.2061C20.0684 27.0127 18.2976 23.6645 20.8496 20.8893C23.6249 18.3373 26.973 20.1155 27.1665 23.2404C27.2855 25.1154 29.0861 26.1719 30.8048 24.5276L31.9432 23.3892L35.0086 20.3238C35.016 20.3164 35.016 20.3164 35.0235 20.309L35.0681 20.2643C36.3106 19.0218 36.3106 17.0054 35.0681 15.7629Z" fill="#5669FF"/>
</g>
<defs>
<clipPath id="clip0_16_633">
<rect width="36" height="36" fill="white"/>
</clipPath>
</defs>
</svg>
