<svg width="48" height="48" viewBox="0 0 48 48" fill="none" xmlns="http://www.w3.org/2000/svg">
<g clip-path="url(#clip0_16_125)">
<path d="M45.0013 30.3073V28.0372H40.1542V30.3073C38.6557 31.1724 37.7323 32.7704 37.7307 34.4999V47.4253H47.4248V34.4999C47.4232 32.7704 46.4998 31.1724 45.0013 30.3073Z" fill="#E0E0E0"/>
<path d="M47.4247 35.5824C45.6176 40.221 42.6262 44.3038 38.7485 47.4253H47.4247V35.5824Z" fill="#D1D1D1"/>
<path d="M44.1934 34.5001H37.7307V44.1942H44.1934V34.5001Z" fill="#5669FF"/>
<path d="M41.7699 40.1552H37.7307V41.7708H41.7699V40.1552Z" fill="#5669FF"/>
<path d="M41.7699 36.9237H37.7307V38.5394H41.7699V36.9237Z" fill="#5669FF"/>
<path d="M45.0013 28.0372H40.1543V29.6529H45.0013V28.0372Z" fill="#D1D1D1"/>
<path d="M46.8571 9.21909L47.9995 8.07666L39.9225 -0.000340148L38.7801 1.14209L46.8571 9.21909Z" fill="#5669FF"/>
<path d="M36.923 15.112L45.2679 6.76704L41.2288 2.65521L32.8838 11.0729L36.923 15.112Z" fill="#5669FF"/>
<path d="M1.14377 48.0001L10.0319 39.1121L8.88943 37.9696L0.00133839 46.8577L1.14377 48.0001Z" fill="#5669FF"/>
<path d="M11.0715 40.9644L14.3046 37.7313L10.2661 33.6928L7.03296 36.9259L11.0715 40.9644Z" fill="#5669FF"/>
<path d="M41.5358 19.3854L28.6104 6.45996L27.4632 7.60713L29.8867 10.0306L7.84082 32.0765L15.9193 40.1549L37.9652 18.109L40.3886 20.5325L41.5358 19.3854Z" fill="#5669FF" fill-opacity="0.6"/>
<path d="M12.2355 36.4711L15.9192 40.1549L37.9651 18.109L40.3886 20.5325L41.5357 19.3854L35.4284 13.2781L12.2355 36.4711Z" fill="#5669FF"/>
<path d="M46.6169 24.806H38.5386V28.0374H46.6169V24.806Z" fill="#5669FF"/>
<path d="M46.6168 24.806H43.3854V28.0374H46.6168V24.806Z" fill="#3E8CC7"/>
<path d="M13.7345 32.6458L14.877 31.5034L11.6438 28.2702L10.5014 29.4127L13.7345 32.6458Z" fill="#5669FF"/>
<path d="M16.1527 28.6093L17.2952 27.4669L14.8732 25.045L13.7308 26.1874L16.1527 28.6093Z" fill="#5669FF"/>
<path d="M20.201 26.1885L21.3434 25.0461L18.1103 21.813L16.9678 22.9554L20.201 26.1885Z" fill="#5669FF"/>
<path d="M22.6115 22.1408L23.7539 20.9984L21.332 18.5765L20.1895 19.7189L22.6115 22.1408Z" fill="#5669FF"/>
<path d="M26.6612 19.7229L27.8036 18.5805L24.5705 15.3474L23.4281 16.4898L26.6612 19.7229Z" fill="#5669FF"/>
<path d="M29.0758 15.6858L30.2183 14.5434L27.7963 12.1215L26.6539 13.2639L29.0758 15.6858Z" fill="#5669FF"/>
</g>
<defs>
<clipPath id="clip0_16_125">
<rect width="48" height="48" fill="white"/>
</clipPath>
</defs>
</svg>
