<svg width="23" height="19" viewBox="0 0 23 19" fill="none" xmlns="http://www.w3.org/2000/svg">
<path fill-rule="evenodd" clip-rule="evenodd" d="M11.1721 5.05429L11.2219 5.8761L10.3913 5.77547C7.36782 5.38972 4.72641 4.08155 2.4837 1.88448L1.38727 0.794336L1.10486 1.59937C0.506802 3.39392 0.888892 5.2891 2.13484 6.56373C2.79934 7.26813 2.64983 7.36876 1.50356 6.94947C1.10486 6.8153 0.755991 6.71467 0.722766 6.76499C0.606477 6.88239 1.00518 8.40859 1.32082 9.01237C1.75275 9.85094 2.63322 10.6727 3.59675 11.1591L4.41077 11.5449L3.44724 11.5616C2.51693 11.5616 2.4837 11.5784 2.58338 11.9306C2.91563 13.0208 4.22803 14.178 5.68994 14.6811L6.71992 15.0333L5.82284 15.57C4.49383 16.3415 2.93224 16.7776 1.37066 16.8111C0.62309 16.8279 0.00842285 16.895 0.00842285 16.9453C0.00842285 17.113 2.03516 18.0522 3.21466 18.4212C6.75315 19.5113 10.9561 19.0417 14.1125 17.1801C16.3552 15.8551 18.5979 13.222 19.6445 10.6727C20.2094 9.31425 20.7742 6.83207 20.7742 5.6413C20.7742 4.86981 20.824 4.76918 21.7543 3.84675C22.3026 3.31006 22.8176 2.72306 22.9172 2.55534C23.0834 2.23668 23.0667 2.23668 22.2195 2.5218C20.8074 3.02494 20.6081 2.95786 21.3058 2.20314C21.8208 1.66645 22.4355 0.693707 22.4355 0.408591C22.4355 0.358277 22.1863 0.442134 21.9039 0.593078C21.6048 0.760793 20.9403 1.01236 20.442 1.16331L19.5449 1.44842L18.7309 0.894965C18.2823 0.593078 17.651 0.257648 17.3188 0.157019C16.4715 -0.077782 15.1757 -0.044239 14.4116 0.224105C12.335 0.978822 11.0226 2.92431 11.1721 5.05429Z" fill="#0F001A"/>
</svg>
