<svg width="28" height="23" viewBox="0 0 28 23" fill="none" xmlns="http://www.w3.org/2000/svg">
<path d="M27.5687 2.96549C26.5598 3.41258 25.4759 3.71466 24.3365 3.8512C25.5122 3.1477 26.3918 2.04047 26.8111 0.736117C25.7065 1.39223 24.4976 1.85406 23.2369 2.10153C22.3891 1.19633 21.2661 0.596345 20.0424 0.394732C18.8187 0.193119 17.5627 0.401157 16.4693 0.986548C15.3759 1.57194 14.5064 2.50193 13.9957 3.63213C13.4851 4.76234 13.3618 6.02952 13.6451 7.23695C11.4069 7.12457 9.21733 6.54282 7.2185 5.52946C5.21967 4.5161 3.45626 3.09377 2.0427 1.35478C1.55937 2.18853 1.28145 3.1552 1.28145 4.1847C1.28091 5.11149 1.50914 6.02408 1.94589 6.8415C2.38263 7.65893 3.01439 8.35591 3.78512 8.87062C2.89128 8.84218 2.01717 8.60066 1.23553 8.16616V8.23866C1.23544 9.53851 1.68507 10.7984 2.50813 11.8044C3.33119 12.8105 4.47697 13.5009 5.75107 13.7583C4.9219 13.9827 4.05257 14.0158 3.20874 13.855C3.56822 14.9734 4.26844 15.9515 5.21139 16.6522C6.15434 17.3529 7.29281 17.7412 8.46741 17.7627C6.47346 19.328 4.01094 20.1771 1.47599 20.1734C1.02695 20.1735 0.578291 20.1473 0.132324 20.0948C2.70544 21.7492 5.70074 22.6273 8.75982 22.6239C19.1152 22.6239 24.7763 14.0471 24.7763 6.60862C24.7763 6.36695 24.7702 6.12287 24.7594 5.8812C25.8605 5.08488 26.811 4.09878 27.5663 2.96912L27.5687 2.96549Z" fill="white"/>
</svg>
