<svg width="27" height="19" viewBox="0 0 27 19" fill="none" xmlns="http://www.w3.org/2000/svg">
<path fill-rule="evenodd" clip-rule="evenodd" d="M25.8823 2.96691C25.5783 1.79902 24.6826 0.879362 23.5451 0.567242C21.4838 0 13.2174 0 13.2174 0C13.2174 0 4.95096 0 2.8895 0.567242C1.75205 0.879362 0.856276 1.79902 0.552276 2.96691C0 5.08357 0 9.49999 0 9.49999C0 9.49999 0 13.9163 0.552276 16.0331C0.856276 17.201 1.75205 18.1206 2.8895 18.4329C4.95096 19 13.2174 19 13.2174 19C13.2174 19 21.4838 19 23.5451 18.4329C24.6826 18.1206 25.5783 17.201 25.8823 16.0331C26.4348 13.9163 26.4348 9.49999 26.4348 9.49999C26.4348 9.49999 26.4348 5.08357 25.8823 2.96691Z" fill="#0F001A"/>
<path fill-rule="evenodd" clip-rule="evenodd" d="M10.7394 14.0436V5.78271L17.3481 9.91331L10.7394 14.0436Z" fill="white"/>
</svg>
